<svg width="176" height="116" viewBox="0 0 176 116" fill="none" xmlns="http://www.w3.org/2000/svg">
<path d="M28.5 6.47214L32.9965 20.3111L33.4456 21.693H34.8986H49.4497L37.6777 30.2459L36.5021 31.1L36.9511 32.482L41.4477 46.3209L29.6756 37.768L28.5 36.9139L27.3244 37.768L15.5523 46.3209L20.0489 32.482L20.4979 31.1L19.3223 30.2459L7.55026 21.693H22.1014H23.5544L24.0035 20.3111L28.5 6.47214Z" stroke="black" stroke-width="4"/>
<path d="M90.5 6.47214L94.9965 20.3111L95.4456 21.693H96.8986H111.45L99.6777 30.2459L98.5021 31.1L98.9511 32.482L103.448 46.3209L91.6756 37.768L90.5 36.9139L89.3244 37.768L77.5523 46.3209L82.0489 32.482L82.4979 31.1L81.3223 30.2459L69.5503 21.693H84.1014H85.5544L86.0035 20.3111L90.5 6.47214Z" stroke="black" stroke-width="4"/>
<path d="M56.5 65.4721L60.9965 79.3111L61.4456 80.693H62.8986H77.4497L65.6777 89.2459L64.5021 90.1L64.9511 91.482L69.4477 105.321L57.6756 96.768L56.5 95.9139L55.3244 96.768L43.5523 105.321L48.0489 91.482L48.4979 90.1L47.3223 89.2459L35.5503 80.693H50.1014H51.5544L52.0035 79.3111L56.5 65.4721Z" stroke="black" stroke-width="4"/>
<path d="M118.5 65.4721L122.997 79.3111L123.446 80.693H124.899H139.45L127.678 89.2459L126.502 90.1L126.951 91.482L131.448 105.321L119.676 96.768L118.5 95.9139L117.324 96.768L105.552 105.321L110.049 91.482L110.498 90.1L109.322 89.2459L97.5503 80.693H112.101H113.554L114.003 79.3111L118.5 65.4721Z" stroke="black" stroke-width="4"/>
<path d="M147.5 6.47214L151.997 20.3111L152.446 21.693H153.899H168.45L156.678 30.2459L155.502 31.1L155.951 32.482L160.448 46.3209L148.676 37.768L147.5 36.9139L146.324 37.768L134.552 46.3209L139.049 32.482L139.498 31.1L138.322 30.2459L126.55 21.693H141.101H142.554L143.003 20.3111L147.5 6.47214Z" stroke="black" stroke-width="4"/>
</svg>
