<svg width="176" height="116" viewBox="0 0 176 116" fill="none" xmlns="http://www.w3.org/2000/svg">
<path d="M28.5 1.61804L34.4231 19.8475L34.5354 20.193H34.8986H54.0663L38.5593 31.4595L38.2654 31.673L38.3777 32.0185L44.3008 50.248L28.7939 38.9815L28.5 38.768L28.2061 38.9815L12.6992 50.248L18.6223 32.0185L18.7346 31.673L18.4407 31.4595L2.93373 20.193H22.1014H22.4646L22.5769 19.8475L28.5 1.61804Z" stroke="black"/>
<path d="M90.5 1.61804L96.4231 19.8475L96.5354 20.193H96.8986H116.066L100.559 31.4595L100.265 31.673L100.378 32.0185L106.301 50.248L90.7939 38.9815L90.5 38.768L90.2061 38.9815L74.6992 50.248L80.6223 32.0185L80.7346 31.673L80.4407 31.4595L64.9337 20.193H84.1014H84.4646L84.5769 19.8475L90.5 1.61804Z" stroke="black"/>
<path d="M56.5 60.618L62.4231 78.8475L62.5354 79.193H62.8986H82.0663L66.5593 90.4595L66.2654 90.673L66.3777 91.0185L72.3008 109.248L56.7939 97.9815L56.5 97.768L56.2061 97.9815L40.6992 109.248L46.6223 91.0185L46.7346 90.673L46.4407 90.4595L30.9337 79.193H50.1014H50.4646L50.5769 78.8475L56.5 60.618Z" stroke="black"/>
<path d="M118.5 60.618L124.423 78.8475L124.535 79.193H124.899H144.066L128.559 90.4595L128.265 90.673L128.378 91.0185L134.301 109.248L118.794 97.9815L118.5 97.768L118.206 97.9815L102.699 109.248L108.622 91.0185L108.735 90.673L108.441 90.4595L92.9337 79.193H112.101H112.465L112.577 78.8475L118.5 60.618Z" stroke="black"/>
<path d="M147.5 1.61804L153.423 19.8475L153.535 20.193H153.899H173.066L157.559 31.4595L157.265 31.673L157.378 32.0185L163.301 50.248L147.794 38.9815L147.5 38.768L147.206 38.9815L131.699 50.248L137.622 32.0185L137.735 31.673L137.441 31.4595L121.934 20.193H141.101H141.465L141.577 19.8475L147.5 1.61804Z" stroke="black"/>
</svg>
