<svg width="36" height="34" viewBox="0 0 36 34" fill="none" xmlns="http://www.w3.org/2000/svg">
<path d="M34.9278 0.403992H29.9268C29.4054 0.403992 28.9602 0.778992 28.8702 1.29259L28.1208 5.60779H1.0722C0.757802 5.60779 0.459002 5.74579 0.255002 5.98579C0.0516017 6.22519 -0.0365983 6.54259 0.0144017 6.85279L1.9032 18.4208C1.9788 18.8876 2.352 19.25 2.82 19.3124L25.2264 22.286L24.9774 23.72H4.2126C3.6204 23.72 3.1404 24.2 3.1404 24.7922C3.1404 25.3844 3.6204 25.8644 4.2126 25.8644H25.8798C26.4012 25.8644 26.847 25.4894 26.9364 24.9758L27.5304 21.554L29.1252 12.3674L30.8298 2.54959H34.9278C35.52 2.54899 36 2.06839 36 1.47679C36 0.884592 35.52 0.403992 34.9278 0.403992ZM3.891 17.2904L2.334 7.75339H27.7488L25.593 20.1704L3.891 17.2904Z" fill="#FFA945"/>
<path d="M23.2872 26.717C21.3912 26.717 19.848 28.2596 19.848 30.1562C19.848 32.0528 21.3912 33.5954 23.2872 33.5954C25.1838 33.5954 26.7264 32.0528 26.7264 30.1562C26.7264 28.2596 25.1838 26.717 23.2872 26.717ZM23.2872 31.4516C22.5732 31.4516 21.9924 30.8702 21.9924 30.1568C21.9924 29.4434 22.5732 28.8626 23.2872 28.8626C24.0006 28.8626 24.582 29.4434 24.582 30.1568C24.582 30.8702 24.0006 31.4516 23.2872 31.4516Z" fill="#FFA945"/>
<path d="M5.274 26.717C3.3774 26.717 1.8348 28.2596 1.8348 30.1562C1.8348 32.0528 3.3774 33.596 5.274 33.596C7.1706 33.596 8.7132 32.0534 8.7132 30.1568C8.7132 28.2602 7.1706 26.717 5.274 26.717ZM5.274 31.4516C4.5606 31.4516 3.9798 30.8702 3.9798 30.1568C3.9798 29.4434 4.5606 28.8626 5.274 28.8626C5.9874 28.8626 6.5688 29.4434 6.5688 30.1568C6.5688 30.8702 5.9874 31.4516 5.274 31.4516Z" fill="#FFA945"/>
</svg>
