<svg width="36" height="30" viewBox="0 0 36 30" fill="none" xmlns="http://www.w3.org/2000/svg">
<path d="M6.4428 23.0124C7.893 23.0124 9.1014 21.96 9.6744 20.1978C9.6972 20.1276 9.7314 20.076 9.7992 19.9776C10.0236 19.653 10.2246 19.2942 10.2246 18.4812C10.2246 15.3666 8.2638 13.9482 6.4422 13.9482C4.6002 13.9482 2.6178 15.366 2.6178 18.4812C2.6178 19.2966 2.8386 19.6674 3.084 20.0058C3.159 20.1078 3.1986 20.1642 3.2226 20.2356C3.8034 21.9738 5.007 23.0124 6.4428 23.0124ZM3.7896 18.4806C3.7896 15.9984 5.2188 15.1182 6.4428 15.1182C7.743 15.1182 9.054 16.1574 9.054 18.4806C9.054 18.996 8.9628 19.1286 8.8362 19.3116C8.7474 19.4394 8.6376 19.599 8.5608 19.8354C8.1522 21.0918 7.3608 21.8418 6.4428 21.8418C5.5356 21.8418 4.7472 21.1026 4.3344 19.866C4.2522 19.6188 4.1298 19.4514 4.0314 19.3152C3.891 19.1214 3.7896 18.9834 3.7896 18.4806Z" fill="#FFA945"/>
<path d="M22.4352 23.0124C23.886 23.0124 25.0944 21.96 25.668 20.1978C25.6908 20.1264 25.725 20.076 25.7928 19.9764C26.0166 19.653 26.2176 19.2942 26.2176 18.4812C26.2176 15.3666 24.2568 13.9482 22.4352 13.9482C20.5938 13.9482 18.6114 15.366 18.6114 18.4812C18.6114 19.2966 18.8316 19.6674 19.0776 20.0046C19.152 20.1078 19.1922 20.1642 19.2156 20.2356C19.7952 21.9738 20.9988 23.0124 22.4352 23.0124ZM22.4352 15.1182C23.7348 15.1182 25.047 16.1574 25.047 18.4806C25.047 18.996 24.9558 19.1286 24.8298 19.3116C24.741 19.4394 24.6306 19.599 24.5544 19.8354C24.1452 21.0918 23.3538 21.8418 22.4358 21.8418C21.528 21.8418 20.7402 21.1038 20.3274 19.866C20.2452 19.6188 20.1228 19.4502 20.025 19.3152C19.884 19.122 19.7826 18.9822 19.7826 18.4806C19.782 15.9984 21.2112 15.1182 22.4352 15.1182Z" fill="#FFA945"/>
<path d="M33.1836 21.4392C33.324 21.2352 33.4536 21.0138 33.5166 20.646C33.6006 21.0432 33.9528 21.342 34.3752 21.342H35.1222C35.6076 21.342 36.0006 20.9484 36.0006 20.463V0.986992C36.0006 0.501592 35.6076 0.109192 35.1222 0.109192H1.059C0.573603 0.109192 0.180603 0.501592 0.180603 0.986992V20.4636C0.180603 20.949 0.573603 21.3426 1.059 21.3426H1.8924C2.3778 21.3426 2.7708 20.949 2.7708 20.4636C2.7708 19.9938 2.4018 19.6092 1.9374 19.587V1.86539H34.2438V19.5948C33.9288 19.6416 33.6684 19.8576 33.5562 20.1456C33.5562 20.1408 33.5568 20.1372 33.5568 20.1318C33.5568 17.4588 31.8654 16.2402 30.2934 16.2402C28.7052 16.2402 26.9952 17.4588 26.9952 20.1318C26.9952 20.8446 27.1884 21.1692 27.4044 21.4656C27.4626 21.5454 27.4914 21.5862 27.507 21.6318C27.6996 22.2108 27.9738 22.6968 28.3092 23.079C28.0722 23.016 27.8124 23.052 27.5964 23.1972C27.408 23.3238 27.2286 23.4666 27.054 23.6178C26.6166 23.0682 26.1126 22.59 25.5462 22.2102C25.1898 21.9714 24.7128 22.0248 24.4188 22.338C24 22.7808 23.3172 23.3094 22.4142 23.3094C21.5388 23.3094 20.856 22.7808 20.4384 22.338C20.1438 22.0254 19.6668 21.9714 19.311 22.2102C18.6954 22.623 18.15 23.1498 17.688 23.7618C17.466 23.5542 17.2332 23.3622 16.9854 23.196C16.7742 23.0556 16.5222 23.0178 16.29 23.0742C16.6296 22.6866 16.9062 22.1892 17.0988 21.5988C17.1132 21.552 17.1378 21.5166 17.1912 21.4392C17.3874 21.1542 17.5638 20.8404 17.5638 20.1312C17.5638 17.4582 15.8724 16.2396 14.3004 16.2396C12.7122 16.2396 11.0022 17.4582 11.0022 20.1312C11.0022 20.844 11.196 21.1686 11.4114 21.465C11.4696 21.5448 11.4984 21.5856 11.514 21.6312C11.7066 22.2102 11.9814 22.6962 12.3162 23.0784C12.0792 23.0154 11.82 23.0514 11.604 23.1954C11.4156 23.322 11.2338 23.4612 11.0586 23.6136C10.6218 23.0652 10.1184 22.5882 9.5532 22.2096C9.1962 21.9708 8.7198 22.0242 8.4258 22.3374C8.0076 22.7802 7.3248 23.3088 6.4218 23.3088C5.5464 23.3088 4.8636 22.7802 4.4454 22.3374C4.1514 22.0248 3.6744 21.9708 3.318 22.2096C1.2828 23.5734 0.0114029 26.1786 2.92274e-06 29.01C-0.000597077 29.2434 0.0912029 29.4672 0.256203 29.6334C0.420603 29.7984 0.644403 29.8914 0.878403 29.8914H6.4218C6.4308 29.8914 6.4398 29.8914 6.4488 29.8914H11.9916H14.283C14.2866 29.8914 14.2902 29.8902 14.2944 29.8902C14.2986 29.8902 14.3016 29.8914 14.3058 29.8914H16.8714H16.872H22.4142C22.4238 29.8914 22.4328 29.8914 22.4418 29.8914H27.9846H30.2754C30.2796 29.8914 30.2832 29.8902 30.2874 29.8902C30.2916 29.8902 30.2952 29.8914 30.2988 29.8914H34.9416C35.1756 29.8914 35.3994 29.799 35.5638 29.6334C35.7282 29.4678 35.8212 29.2434 35.82 29.01C35.811 26.5926 34.722 24.3648 32.9784 23.1966C32.7672 23.0562 32.5152 23.0196 32.283 23.076C32.622 22.6872 32.8992 22.191 33.0912 21.5994C33.1056 21.5532 33.1296 21.5166 33.1836 21.4392ZM14.2998 17.412C15.3414 17.412 16.3926 18.252 16.3926 20.1318C16.3926 20.5338 16.3266 20.6298 16.227 20.7738C16.1538 20.8806 16.0524 21.0258 15.9846 21.2376C15.6558 22.248 15.0264 22.851 14.3004 22.851C13.5834 22.851 12.957 22.257 12.6252 21.261C12.5514 21.0408 12.444 20.8932 12.3582 20.7744C12.2472 20.622 12.1734 20.5212 12.1734 20.1312C12.1728 18.1242 13.3188 17.412 14.2998 17.412ZM15.1272 23.8818C14.8812 24.0072 14.5998 24.0942 14.283 24.0942C13.9608 24.0942 13.6728 23.9994 13.422 23.8644C13.6986 23.9688 13.9932 24.0228 14.2998 24.0228C14.5884 24.0222 14.865 23.973 15.1272 23.8818ZM12.0618 25.0758C12.738 25.5846 13.4982 25.8504 14.3052 25.8504C15.0948 25.8504 15.8514 25.5846 16.527 25.0758C16.611 25.1568 16.6902 25.2432 16.7688 25.3326C16.386 26.1942 16.1358 27.1434 16.0398 28.1346H14.3052C14.3016 28.1346 14.298 28.1358 14.2938 28.1358C14.2896 28.1358 14.2866 28.1346 14.2824 28.1346H12.8226C12.7194 27.066 12.438 26.0472 12.0036 25.1346C12.024 25.1154 12.042 25.0944 12.0618 25.0758ZM6.4494 28.1346C6.4398 28.1346 6.4314 28.1346 6.4224 28.1346H1.8102C2.0022 26.5008 2.7048 25.041 3.7596 24.0894C4.5666 24.7314 5.4792 25.0668 6.4494 25.0668C7.398 25.0668 8.3064 24.7314 9.1122 24.0894C10.1664 25.041 10.8696 26.5014 11.0616 28.1346H6.4494ZM22.4412 28.1346C22.4322 28.1346 22.4232 28.1346 22.4136 28.1346H17.802C17.994 26.5008 18.6966 25.041 19.7508 24.0894C20.5578 24.7314 21.4704 25.0668 22.4406 25.0668C23.3892 25.0668 24.2976 24.7314 25.1034 24.0894C26.1576 25.041 26.8602 26.5014 27.0522 28.1346H22.4412ZM33.999 28.1346H30.2982C30.2946 28.1346 30.291 28.1358 30.2868 28.1358C30.2826 28.1358 30.279 28.1346 30.2748 28.1346H28.815C28.7118 27.066 28.4304 26.0472 27.9966 25.1346C28.0158 25.116 28.0344 25.095 28.0542 25.0758C28.731 25.5846 29.4912 25.8504 30.2976 25.8504C31.0872 25.8504 31.8438 25.5846 32.5194 25.0758C33.2964 25.8186 33.8232 26.91 33.999 28.1346ZM29.4162 23.8638C29.6922 23.9682 29.9862 24.0222 30.2928 24.0222C30.5808 24.0222 30.8574 23.973 31.1196 23.8818C30.8742 24.0072 30.5928 24.0942 30.2754 24.0942C29.9544 24.0936 29.6664 23.9988 29.4162 23.8638ZM32.2194 20.7738C32.1462 20.8806 32.0454 21.0258 31.9764 21.2376C31.6482 22.248 31.0188 22.851 30.2928 22.851C29.5752 22.851 28.9488 22.257 28.617 21.261C28.5438 21.0408 28.4364 20.8944 28.3506 20.7756C28.239 20.622 28.1652 20.5212 28.1652 20.1312C28.1652 18.1236 29.3112 17.4114 30.2928 17.4114C31.3344 17.4114 32.385 18.2514 32.385 20.1312C32.3856 20.5338 32.3196 20.6298 32.2194 20.7738Z" fill="#FFA945"/>
</svg>
