<svg width="36" height="28" viewBox="0 0 36 28" fill="none" xmlns="http://www.w3.org/2000/svg">
<path d="M22.2372 12.1838C21.5748 12.1838 20.799 12.1964 20.2614 12.215C20.1408 12.2192 20.0262 12.2486 19.9224 12.2948L21.3804 10.367C23.3328 7.78339 22.8198 4.09219 20.2368 2.13919C19.2084 1.36159 17.9844 0.950592 16.698 0.950592C14.838 0.950592 13.1292 1.80079 12.009 3.28279L1.1886 17.5916C0.243003 18.8432 -0.159597 20.3882 0.0564031 21.9428C0.271803 23.4968 1.0806 24.8744 2.3322 25.82C3.3612 26.5976 4.5846 27.0086 5.8704 27.0086C7.731 27.0086 9.4392 26.1584 10.5594 24.6764L10.6812 24.515C10.671 24.9002 10.9014 25.2662 11.2836 25.4042C13.4832 26.1992 17.5164 27.0488 22.2366 27.0488C25.743 27.0488 29.0496 26.6912 31.5492 26.0438C34.503 25.2788 36 24.1868 36 22.799V16.4348C36 13.0724 26.9976 12.1844 22.2372 12.1838ZM34.1616 16.4294C34.0338 17.0954 30.1746 18.8462 22.2402 18.8462H22.2384C20.8152 18.8462 19.515 18.7838 18.2238 18.6524L28.1364 14.3978C32.1018 14.9498 34.071 15.9644 34.1616 16.4294ZM20.3268 14.0522C20.844 14.0342 21.5946 14.0222 22.2378 14.0222C23.7324 14.0222 25.0824 14.0846 26.2908 14.1896L16.428 18.4226C16.2228 18.3914 16.0182 18.3602 15.8112 18.3254C15.6402 18.296 15.4734 18.32 15.3216 18.3806L19.386 13.004C19.3788 13.0574 19.3734 13.1108 19.3752 13.166C19.3926 13.6736 19.8312 14.072 20.3268 14.0522ZM13.4748 4.39099C14.2446 3.37279 15.4188 2.78899 16.6974 2.78899C17.5812 2.78899 18.4212 3.07159 19.128 3.60559C20.9022 4.94719 21.255 7.48339 19.9134 9.25819L14.781 16.0466L8.343 11.1794L13.4748 4.39099ZM9.0936 23.5682C8.3244 24.5858 7.1496 25.1702 5.871 25.1702C4.9878 25.1702 4.1484 24.8876 3.441 24.353C2.5812 23.7032 2.0268 22.7576 1.878 21.6902C1.7298 20.6228 2.0064 19.5608 2.6562 18.701L7.7886 11.9132L14.2266 16.7804L9.0936 23.5682ZM22.2372 25.2116C17.7498 25.2116 13.869 24.3842 11.9094 23.6762C11.7132 23.6048 11.5092 23.6084 11.3238 23.666L14.7474 19.1384C14.6982 19.6166 15.024 20.057 15.5058 20.138C17.7516 20.516 19.8282 20.6846 22.2372 20.6846C22.2384 20.6846 22.2384 20.6846 22.2396 20.6846C25.7442 20.6846 29.0514 20.3276 31.5498 19.6796C32.6094 19.4048 33.4782 19.0874 34.1616 18.7298V22.7948C34.0308 23.462 30.171 25.2116 22.2372 25.2116Z" fill="#FFA945"/>
</svg>
