<svg width="36" height="36" viewBox="0 0 36 36" fill="none" xmlns="http://www.w3.org/2000/svg">
<path d="M33.4976 2.4972C31.934 0.9342 30.1664 0 28.7696 0C27.9122 0 27.3824 0.3498 27.086 0.6444L24.4988 3.2346L2.22564 25.5084C2.22024 25.5132 2.21724 25.5192 2.21304 25.524C2.19804 25.5396 2.18604 25.5582 2.17224 25.5744C2.12664 25.6272 2.08584 25.683 2.05284 25.7424C2.03964 25.764 2.02824 25.7868 2.01624 25.8096C1.98264 25.878 1.95624 25.9488 1.93824 26.022C1.93524 26.0334 1.92924 26.0418 1.92624 26.0532L0.566035 32.1936V32.1948L0.565435 32.1954L0.0266352 34.6506C-0.0549648 35.0208 0.0578352 35.4078 0.326635 35.6754C0.537235 35.886 0.820435 36 1.11204 36C1.19184 36 1.27224 35.9916 1.35144 35.9742L3.80424 35.4324L9.94404 34.0746C9.95664 34.0722 9.96624 34.0644 9.97824 34.062C10.0502 34.044 10.1198 34.0182 10.1882 33.9852C10.211 33.9738 10.2332 33.9624 10.2554 33.9492C10.3154 33.915 10.3706 33.8748 10.424 33.8286C10.4402 33.8154 10.4582 33.8034 10.4732 33.789C10.4786 33.7836 10.4852 33.7806 10.4894 33.7758L32.7584 11.5008L32.7596 11.5002L35.3552 8.9082C36.8474 7.4106 35.5502 4.5498 33.4976 2.4972ZM9.70404 31.4172L8.56524 30.2784L29.2658 9.5748L30.404 10.713L9.70404 31.4172ZM7.77984 29.4924L6.27204 27.9834L26.975 7.2828L28.4804 8.7888L7.77984 29.4924ZM5.48664 27.198L4.58304 26.2938L25.2848 5.592L26.1896 6.4974L5.48664 27.198ZM3.91824 33.1308L2.86764 32.0796L3.65724 28.5144L7.48584 32.3418L3.91824 33.1308ZM33.7622 7.3572L31.9748 9.1422L26.8562 4.02L28.6376 2.2362C28.6562 2.2308 28.6976 2.223 28.7702 2.223C29.4008 2.223 30.6578 2.8008 31.9268 4.0692C33.5024 5.6454 33.8732 7.0374 33.7622 7.3572Z" fill="#FFA945"/>
</svg>
