<svg width="34" height="36" viewBox="0 0 34 36" fill="none" xmlns="http://www.w3.org/2000/svg">
<path d="M8.84359 5.50201C8.84719 5.50141 8.85079 5.50081 8.85559 5.50081C8.86279 5.51941 8.87059 5.54281 8.87899 5.57221C8.88499 5.58961 8.89099 5.60761 8.89639 5.62441L11.342 12.2328C11.3492 12.2526 11.3546 12.2742 11.3582 12.2952C11.009 12.5328 10.8728 12.9954 11.057 13.3914C11.2058 13.7112 11.5232 13.8996 11.855 13.8996C11.9792 13.8996 12.1046 13.8732 12.2252 13.8174C13.1216 13.4004 13.2848 12.3858 12.986 11.6118L10.5548 5.03761C10.2698 4.12801 9.61159 3.67141 8.69239 3.75001C8.20939 3.79141 7.85119 4.21681 7.89199 4.70101C7.93459 5.18461 8.35039 5.53861 8.84359 5.50201Z" fill="#FFA945"/>
<path d="M18.1682 25.3404C18.0044 25.1748 17.7806 25.08 17.546 25.0794H17.5436C17.3102 25.0794 17.0864 25.1724 16.9226 25.3374C16.7702 25.4892 16.6544 25.6218 16.5464 25.746C16.3622 25.9566 16.2524 26.0832 15.9836 26.262C15.788 26.394 15.515 26.2962 15.3614 26.0676L8.7242 16.068C8.5484 15.8052 8.5826 15.423 8.7908 15.2826C9.0512 15.1098 9.086 15.0972 9.2792 15.0288C9.4166 14.9796 9.5954 14.916 9.8864 14.7924C10.3238 14.607 10.5344 14.1078 10.3622 13.665L7.0076 5.0442C6.92 4.8186 6.743 4.6392 6.5192 4.5486C6.2942 4.4574 6.0434 4.4622 5.8232 4.5636C4.6754 5.0886 3.6782 5.766 2.7638 6.6414C1.8032 7.584 0.799997 8.9658 0.430997 9.8568C0.378197 9.984 0.355997 10.1214 0.366797 10.2588C0.638597 13.9002 3.0776 19.7238 6.437 24.7506C9.743 29.7 14.2934 34.2876 17.5028 35.9064C17.6246 35.9676 17.7608 36 17.8976 36H17.8988C19.16 35.9988 20.8166 35.3496 21.479 35.067C22.7024 34.5294 23.9666 33.7602 24.6242 33.1536C24.8 32.9916 24.902 32.766 24.908 32.5272C24.9128 32.289 24.821 32.0586 24.6536 31.8894L18.1682 25.3404ZM20.7806 33.4542C19.7528 33.8922 18.7532 34.1814 18.0968 34.2336C15.1814 32.6664 10.934 28.3188 7.898 23.7738C4.811 19.1556 2.471 13.686 2.138 10.3482C2.453 9.72 3.194 8.682 3.9872 7.9044C4.523 7.392 5.096 6.9582 5.7242 6.5922L8.4056 13.482C8.2472 13.551 8.0822 13.6434 7.8152 13.821C6.8024 14.4996 6.5498 15.975 7.2608 17.0412L13.8992 27.0408C14.333 27.6918 15.0392 28.08 15.7868 28.08C16.2038 28.08 16.6094 27.957 16.9598 27.7236C17.2256 27.546 17.4146 27.3846 17.5682 27.2316L22.6988 32.4132C22.1822 32.7552 21.5012 33.1374 20.7806 33.4542Z" fill="#FFA945"/>
<path d="M26.3294 28.971L21.164 23.8986C20.5736 23.3394 19.5512 23.1042 18.8204 23.772C18.4616 24.099 18.4358 24.6552 18.764 25.0134C19.064 25.3428 19.5572 25.3902 19.9136 25.1436C19.9262 25.1514 19.937 25.158 19.943 25.164L25.037 30.165C25.0556 30.2184 25.0628 30.3306 25.0184 30.411C24.7838 30.8364 24.9386 31.371 25.3628 31.6056C25.4978 31.6794 25.643 31.7154 25.787 31.7154C26.0966 31.7154 26.3978 31.551 26.558 31.2606C26.945 30.5592 26.8742 29.625 26.393 29.0394C26.3726 29.0154 26.3516 28.9926 26.3294 28.971Z" fill="#FFA945"/>
<path d="M14.375 10.6332C19.9892 11.6844 23.7008 17.1072 22.6496 22.7214C22.5608 23.1984 22.8746 23.6574 23.3516 23.7468C23.4068 23.757 23.4608 23.7618 23.5142 23.7618C23.9288 23.7618 24.2984 23.4672 24.3776 23.0442C24.9728 19.863 24.2942 16.6404 22.466 13.9698C20.6378 11.2998 17.879 9.50041 14.6978 8.90461C14.2208 8.81701 13.7612 9.13021 13.6712 9.60721C13.583 10.0842 13.898 10.5432 14.375 10.6332Z" fill="#FFA945"/>
<path d="M15.5564 4.32541C15.077 4.23781 14.6198 4.55041 14.531 5.02741C14.4422 5.50501 14.756 5.96401 15.233 6.05341C19.1762 6.79141 22.595 9.02101 24.8612 12.3312C27.1274 15.6414 27.9692 19.6362 27.2294 23.5788C27.1406 24.0558 27.4544 24.5154 27.9314 24.6042C27.9866 24.615 28.0418 24.6198 28.094 24.6198C28.5086 24.6198 28.8782 24.3246 28.9574 23.9022C29.7824 19.4976 28.8428 15.036 26.3114 11.3388C23.7806 7.64041 19.9616 5.14981 15.5564 4.32541Z" fill="#FFA945"/>
<path d="M29.9306 8.8614C26.7374 4.197 21.9194 1.0554 16.3634 0.014403C15.887 -0.072597 15.4274 0.240003 15.338 0.717003C15.248 1.194 15.563 1.6536 16.04 1.743C21.134 2.697 25.5524 5.5776 28.4792 9.8544C31.406 14.1312 32.4938 19.2918 31.5392 24.3864C31.4504 24.8634 31.7654 25.323 32.2424 25.4118C32.2964 25.422 32.3516 25.4268 32.405 25.4268C32.8196 25.4268 33.1892 25.1322 33.2678 24.7098C34.3088 19.1538 33.1226 13.5252 29.9306 8.8614Z" fill="#FFA945"/>
</svg>
