<svg width="36" height="30" viewBox="0 0 36 30" fill="none" xmlns="http://www.w3.org/2000/svg">
<path d="M35.67 4.64438L31.3548 0.329175C30.9156 -0.109425 30.2034 -0.110025 29.7642 0.329175L12.2604 17.833L6.2742 11.8468C5.8524 11.425 5.1054 11.425 4.6836 11.8468L0.3294 16.2016C-0.1098 16.6408 -0.1098 17.3536 0.3294 17.7928L11.4252 28.8892C11.6364 29.1004 11.9226 29.2186 12.2208 29.2186C12.519 29.2186 12.8058 29.1004 13.0164 28.8892L35.67 6.23497C35.8812 6.02437 35.9994 5.73818 35.9994 5.43998C35.9994 5.14118 35.8812 4.85558 35.67 4.64438ZM12.2208 26.5024L2.7156 16.9972L5.478 14.2342L11.4642 20.2192C11.9034 20.6584 12.6156 20.6584 13.0548 20.2192L30.5586 2.71598L33.2832 5.43998L12.2208 26.5024Z" fill="#FFA945"/>
</svg>
