<svg width="34" height="36" viewBox="0 0 34 36" fill="none" xmlns="http://www.w3.org/2000/svg">
<path d="M32.1546 34.2318H30.7908V13.8606C30.7908 13.3728 30.3948 12.9762 29.9058 12.9762H25.6146C25.1262 12.9762 24.7308 13.3722 24.7308 13.8606V34.2318H23.4324V17.0886C23.4324 16.6002 23.0376 16.2042 22.5486 16.2042H18.2574C17.769 16.2042 17.3724 16.5996 17.3724 17.0886V34.2312H16.1772V22.0356C16.1772 21.5472 15.7824 21.1512 15.2934 21.1512H11.001C10.5126 21.1512 10.1172 21.5466 10.1172 22.0356V34.2318H8.718V27.1404C8.718 26.652 8.322 26.256 7.833 26.256H3.5406C3.0534 26.256 2.6568 26.6514 2.6568 27.1404V34.2312H0.8838C0.3954 34.2312 0 34.6272 0 35.1156C0.0006 35.6046 0.3954 36 0.8838 36H3.5406H7.833H11.0004H15.2928H18.2562H22.5474H25.6128H29.904H32.1528C32.6412 36 33.0366 35.6046 33.0366 35.1156C33.0378 34.6278 32.643 34.2318 32.1546 34.2318ZM4.4256 34.2318V28.0248H6.9498V34.2318H4.4256ZM11.8854 34.2318V22.9194H14.4084V34.2318H11.8854ZM19.1406 34.2318V17.973H21.6636V34.2318H19.1406ZM26.499 34.2318V14.7444H29.022V34.2318H26.499Z" fill="#FFA945"/>
<path d="M4.75501 20.1834C4.93681 20.1834 5.12041 20.127 5.27881 20.0112L26.9772 4.023L25.5966 11.316L27.3354 11.643L29.3076 1.2084L18.7566 0L18.5538 1.758L25.9248 2.601L4.23001 18.5874C3.83641 18.8772 3.75301 19.4304 4.04281 19.824C4.21561 20.0592 4.48261 20.1834 4.75501 20.1834Z" fill="#FFA945"/>
</svg>
