<svg width="36" height="36" viewBox="0 0 36 36" fill="none" xmlns="http://www.w3.org/2000/svg">
<path d="M18.0006 0C8.0754 0 0 8.0748 0 18C0 27.9252 8.0754 36 18.0006 36C27.9258 36 36 27.9252 36 18C36 8.0748 27.9258 0 18.0006 0ZM18.0006 34.1076C9.1182 34.1076 1.8924 26.8818 1.8924 18C1.8924 9.1182 9.1182 1.8924 18.0006 1.8924C26.8818 1.8924 34.1076 9.1182 34.1076 18C34.1076 26.8818 26.8818 34.1076 18.0006 34.1076Z" fill="#FFA945"/>
<path d="M29.712 14.3958C29.6274 14.1354 29.385 13.9596 29.112 13.9596H21.0822L18.6006 6.3222C18.516 6.0624 18.2736 5.886 18.0006 5.886C17.727 5.886 17.4852 6.0624 17.4 6.3222L14.919 13.9596H6.88858C6.61558 13.9596 6.37318 14.1354 6.28858 14.3958C6.20398 14.6556 6.29638 14.94 6.51778 15.1014L13.0146 19.8204L10.533 27.4578C10.4484 27.7182 10.5408 28.0026 10.7622 28.1634C10.9836 28.3248 11.2824 28.3248 11.5038 28.1634L18 23.4438L24.4962 28.1634C24.6066 28.2438 24.7362 28.284 24.8664 28.284C24.9966 28.284 25.1268 28.2438 25.2378 28.1634C25.4586 28.0026 25.5504 27.7182 25.4664 27.4578L22.986 19.8204L29.4822 15.1014C29.7036 14.94 29.796 14.6556 29.712 14.3958ZM21.873 19.0692C21.6522 19.2306 21.5598 19.5144 21.6438 19.7748L23.667 26.001L18.3714 22.1532C18.15 21.9924 17.8506 21.9924 17.6298 22.1532L12.333 26.0016L14.3562 19.7748C14.4414 19.5144 14.3484 19.2306 14.127 19.0692L8.83018 15.2214H15.3774C15.6504 15.2214 15.8928 15.0456 15.9774 14.7852L18.0006 8.559L20.0238 14.7852C20.1084 15.0456 20.3502 15.2214 20.6238 15.2214H27.1698L21.873 19.0692Z" fill="#FFA945"/>
</svg>
