<svg width="34" height="36" viewBox="0 0 34 36" fill="none" xmlns="http://www.w3.org/2000/svg">
<path d="M29.9936 18.7548C29.9936 19.2528 30.3974 19.6572 30.896 19.6572C31.394 19.6572 31.7978 19.2528 31.7978 18.7548V5.2566C31.7978 4.899 31.586 4.5744 31.259 4.431L21.3548 0.0761961C21.3422 0.0707961 21.329 0.0695961 21.3176 0.0647961C21.2822 0.0509961 21.2468 0.0419961 21.2102 0.0329961C21.1736 0.0239961 21.1382 0.0149961 21.101 0.0101961C21.065 0.00539612 21.0296 0.00539612 20.993 0.00539612C20.9552 0.00539612 20.918 0.00539612 20.8802 0.0101961C20.8448 0.0143961 20.81 0.0233961 20.7746 0.0323961C20.7374 0.0413961 20.7008 0.0509961 20.6642 0.0647961C20.6522 0.0695961 20.6396 0.0707961 20.6276 0.0761961L11.0876 4.2708L1.54581 0.0761961C1.26741 -0.0462039 0.945206 -0.0204039 0.689606 0.146396C0.434606 0.312596 0.281006 0.597596 0.281006 0.901796V25.7478C0.281006 26.106 0.492806 26.43 0.819806 26.5734L10.724 30.9288C10.7306 30.9318 10.7372 30.9324 10.7438 30.9354C10.7876 30.9534 10.8332 30.9678 10.88 30.9786C10.8944 30.9822 10.9088 30.9858 10.9238 30.9882C10.9778 30.999 11.0324 31.005 11.087 31.005C11.1416 31.005 11.1968 30.9984 11.2502 30.9882C11.2652 30.9858 11.2796 30.9822 11.294 30.9786C11.3408 30.9672 11.3858 30.9534 11.4308 30.9354C11.4368 30.9324 11.4434 30.9318 11.45 30.9288L21.341 26.5794C21.3416 26.5794 21.3428 26.5788 21.3434 26.5782L21.3542 26.5734C21.4004 26.5536 21.443 26.529 21.485 26.502C21.497 26.4942 21.5072 26.4858 21.5192 26.4768C21.551 26.454 21.5816 26.4294 21.6092 26.4024C21.6212 26.391 21.632 26.3802 21.6434 26.3688C21.6728 26.3376 21.6992 26.3058 21.7238 26.271C21.7304 26.2626 21.737 26.2554 21.7424 26.2464C21.7706 26.2044 21.7946 26.1588 21.815 26.112C21.8222 26.0982 21.827 26.0832 21.8318 26.0688C21.8456 26.0322 21.857 25.9962 21.8666 25.9578C21.8702 25.9416 21.8744 25.9254 21.8774 25.9092C21.887 25.8564 21.8936 25.8024 21.8936 25.7472V2.2842L29.9936 5.8458V18.7548ZM2.08521 2.2842L10.1852 5.8458V28.7214L2.08521 25.1592V2.2842ZM11.9894 5.8452L20.0888 2.2836V25.1586L11.9894 28.7208V5.8452Z" fill="#FFA945"/>
<path d="M28.2068 20.619C25.1672 20.619 22.694 23.0922 22.694 26.1324C22.694 28.8894 26.9846 34.9428 27.4742 35.6232C27.6434 35.8602 27.9158 36 28.2068 36C28.4978 36 28.7696 35.8602 28.9394 35.6238C29.4284 34.9428 33.7196 28.8894 33.7196 26.133C33.719 23.0922 31.2464 20.619 28.2068 20.619ZM28.2068 33.5172C26.5436 31.0536 24.4976 27.5562 24.4976 26.1324C24.4976 24.0876 26.1614 22.4232 28.2068 22.4232C30.2522 22.4232 31.9154 24.087 31.9154 26.1324C31.9148 27.5556 29.8694 31.053 28.2068 33.5172Z" fill="#FFA945"/>
<path d="M28.2068 24.4008C27.1808 24.4008 26.3462 25.2354 26.3462 26.2602C26.3462 27.2862 27.1808 28.1208 28.2068 28.1208C29.2322 28.1208 30.0668 27.2862 30.0668 26.2602C30.0662 25.2354 29.2322 24.4008 28.2068 24.4008ZM28.2068 27.2178C27.6782 27.2178 27.2486 26.7882 27.2486 26.2596C27.2486 25.7316 27.6782 25.302 28.2068 25.302C28.7348 25.302 29.1644 25.7316 29.1644 26.2596C29.1638 26.7882 28.7348 27.2178 28.2068 27.2178Z" fill="#FFA945"/>
</svg>
