<svg width="34" height="36" viewBox="0 0 34 36" fill="none" xmlns="http://www.w3.org/2000/svg">
<path d="M29.7126 18.7549C29.7126 19.2529 30.1164 19.6573 30.615 19.6573C31.113 19.6573 31.5168 19.2529 31.5168 18.7549V5.25673C31.5168 4.89913 31.305 4.57453 30.978 4.43113L21.0738 0.0763335C21.0612 0.0709335 21.048 0.0697334 21.0366 0.0649334C21.0012 0.0511334 20.9658 0.0421334 20.9292 0.0331334C20.8926 0.0241334 20.8572 0.0151334 20.82 0.0103334C20.784 0.00553345 20.7486 0.00553345 20.712 0.00553345C20.6742 0.00553345 20.637 0.00553345 20.5992 0.0103334C20.5638 0.0145334 20.529 0.0235334 20.4936 0.0325334C20.4564 0.0415334 20.4198 0.0511334 20.3832 0.0649334C20.3712 0.0697334 20.3586 0.0709335 20.3466 0.0763335L10.8066 4.27093L1.2648 0.0763335C0.9864 -0.0460665 0.6642 -0.0202665 0.4086 0.146533C0.1536 0.312733 0 0.597733 0 0.901933V25.7479C0 26.1061 0.2118 26.4301 0.5388 26.5735L10.443 30.9289C10.4496 30.9319 10.4562 30.9325 10.4628 30.9355C10.5066 30.9535 10.5522 30.9679 10.599 30.9787C10.6134 30.9823 10.6278 30.9859 10.6428 30.9883C10.6968 30.9991 10.7514 31.0051 10.806 31.0051C10.8606 31.0051 10.9158 30.9985 10.9692 30.9883C10.9842 30.9859 10.9986 30.9823 11.013 30.9787C11.0598 30.9673 11.1048 30.9535 11.1498 30.9355C11.1558 30.9325 11.1624 30.9319 11.169 30.9289L21.06 26.5795C21.0606 26.5795 21.0618 26.5789 21.0624 26.5783L21.0732 26.5735C21.1194 26.5537 21.162 26.5291 21.204 26.5021C21.216 26.4943 21.2262 26.4859 21.2382 26.4769C21.27 26.4541 21.3006 26.4295 21.3282 26.4025C21.3402 26.3911 21.351 26.3803 21.3624 26.3689C21.3918 26.3377 21.4182 26.3059 21.4428 26.2711C21.4494 26.2627 21.456 26.2555 21.4614 26.2465C21.4896 26.2045 21.5136 26.1589 21.534 26.1121C21.5412 26.0983 21.546 26.0833 21.5508 26.0689C21.5646 26.0323 21.576 25.9963 21.5856 25.9579C21.5892 25.9417 21.5934 25.9255 21.5964 25.9093C21.606 25.8565 21.6126 25.8025 21.6126 25.7473V2.28433L29.7126 5.84593V18.7549ZM1.8042 2.28433L9.9042 5.84593V28.7215L1.8042 25.1593V2.28433ZM11.7084 5.84533L19.8078 2.28373V25.1587L11.7084 28.7209V5.84533Z" fill="#FFA945"/>
<path d="M27.9258 20.6191C24.8862 20.6191 22.413 23.0923 22.413 26.1325C22.413 28.8895 26.7036 34.9429 27.1932 35.6233C27.3624 35.8603 27.6348 36.0001 27.9258 36.0001C28.2168 36.0001 28.4886 35.8603 28.6584 35.6239C29.1474 34.9429 33.4386 28.8895 33.4386 26.1331C33.438 23.0923 30.9654 20.6191 27.9258 20.6191ZM27.9258 33.5173C26.2626 31.0537 24.2166 27.5563 24.2166 26.1325C24.2166 24.0877 25.8804 22.4233 27.9258 22.4233C29.9712 22.4233 31.6344 24.0871 31.6344 26.1325C31.6338 27.5557 29.5884 31.0531 27.9258 33.5173Z" fill="#FFA945"/>
<path d="M27.9258 24.4009C26.8998 24.4009 26.0652 25.2355 26.0652 26.2603C26.0652 27.2863 26.8998 28.1209 27.9258 28.1209C28.9512 28.1209 29.7858 27.2863 29.7858 26.2603C29.7852 25.2355 28.9512 24.4009 27.9258 24.4009ZM27.9258 27.2179C27.3972 27.2179 26.9676 26.7883 26.9676 26.2597C26.9676 25.7317 27.3972 25.3021 27.9258 25.3021C28.4538 25.3021 28.8834 25.7317 28.8834 26.2597C28.8828 26.7883 28.4538 27.2179 27.9258 27.2179Z" fill="#FFA945"/>
</svg>
