<svg width="25" height="36" viewBox="0 0 25 36" fill="none" xmlns="http://www.w3.org/2000/svg">
<path d="M12.3522 7.203C9.58561 7.203 7.33441 9.4542 7.33441 12.2208C7.33441 14.9874 9.58561 17.2386 12.3522 17.2386C15.1182 17.2386 17.37 14.9874 17.37 12.2208C17.37 9.4542 15.1182 7.203 12.3522 7.203ZM12.3522 15.084C10.773 15.084 9.48961 13.7994 9.48961 12.2214C9.48961 10.6422 10.7736 9.3588 12.3522 9.3588C13.9308 9.3588 15.2148 10.6428 15.2148 12.2214C15.2148 13.7994 13.9308 15.084 12.3522 15.084Z" fill="#FFA945"/>
<path d="M12.3522 0C5.541 0 0 5.541 0 12.3522C0 18.84 10.9968 34.8558 11.4648 35.5344C11.6658 35.826 11.9976 36 12.3522 36C12.7062 36 13.038 35.826 13.239 35.5344C13.707 34.8558 24.7044 18.8406 24.7044 12.3522C24.7044 5.541 19.1634 0 12.3522 0ZM12.3522 33.0006C8.8506 27.7422 2.1546 16.7736 2.1546 12.3522C2.1546 6.729 6.7296 2.1546 12.3522 2.1546C17.9748 2.1546 22.5498 6.729 22.5498 12.3522C22.5498 16.7718 15.8532 27.7422 12.3522 33.0006Z" fill="#FFA945"/>
</svg>
