<svg width="36" height="36" viewBox="0 0 36 36" fill="none" xmlns="http://www.w3.org/2000/svg">
<path d="M33.0384 29.817H32.5098V12.6642C32.5098 12.567 32.49 12.4758 32.4618 12.3888C34.3038 12.0264 35.6988 10.4016 35.6988 8.4534V0.8964C35.6988 0.4008 35.2974 0 34.8012 0H1.596C1.0998 0 0.6984 0.4008 0.6984 0.8964V8.454C0.6984 10.4226 2.124 12.06 3.996 12.3984C3.9306 12.5226 3.8892 12.663 3.8892 12.8142V29.817H2.9616C1.3284 29.817 0 31.146 0 32.7786C0 34.4124 1.3284 35.7402 2.9616 35.7402H33.039C34.6722 35.7402 36.0006 34.4124 36.0006 32.7786C36 31.146 34.6716 29.817 33.0384 29.817ZM2.493 8.454V1.794H33.9042V8.454C33.9042 9.6762 32.91 10.6698 31.689 10.6698H31.2744C30.0528 10.6698 29.0592 9.6762 29.0592 8.454V3.729C29.0592 3.2334 28.6572 2.8314 28.1616 2.8314C27.666 2.8314 27.264 3.2334 27.264 3.729V8.454C27.264 9.6762 26.2704 10.6698 25.0488 10.6698H24.6342C23.412 10.6698 22.4184 9.6762 22.4184 8.454V3.729C22.4184 3.2334 22.0164 2.8314 21.5208 2.8314C21.0252 2.8314 20.6232 3.2334 20.6232 3.729V8.454C20.6232 9.6762 19.6296 10.6698 18.408 10.6698H17.9934C16.7718 10.6698 15.7782 9.6762 15.7782 8.454V3.729C15.7782 3.2334 15.3762 2.8314 14.8806 2.8314C14.385 2.8314 13.983 3.2334 13.983 3.729V8.454C13.983 9.6762 12.9894 10.6698 11.7672 10.6698H11.3526C10.131 10.6698 9.1374 9.6762 9.1374 8.454V3.729C9.1374 3.2334 8.7354 2.8314 8.2398 2.8314C7.7442 2.8314 7.3428 3.2334 7.3428 3.729V8.454C7.3428 9.6762 6.3486 10.6698 5.127 10.6698H4.713C3.4872 10.6698 2.493 9.6762 2.493 8.454ZM33.0384 33.9456H2.9616C2.3184 33.9456 1.7958 33.4218 1.7958 32.7786C1.7958 32.1354 2.3184 31.6128 2.9616 31.6128H4.7874C5.283 31.6128 5.6844 31.2108 5.6844 30.7152V12.8142C5.6844 12.678 5.652 12.5514 5.598 12.4356C6.66 12.3102 7.5948 11.7702 8.2362 10.98C8.9724 11.8848 10.0944 12.465 11.349 12.465H11.7636C13.0188 12.465 14.1414 11.8848 14.877 10.98C15.6132 11.8848 16.7352 12.465 17.9898 12.465H18.4044C19.6596 12.465 20.7816 11.8848 21.5172 10.98C22.2534 11.8848 23.376 12.465 24.6306 12.465H25.0452C26.3004 12.465 27.4224 11.8848 28.158 10.98C28.7898 11.757 29.7072 12.2916 30.747 12.4272C30.7266 12.5034 30.7116 12.582 30.7116 12.6642V30.7146C30.7116 31.2102 31.1136 31.6122 31.6092 31.6122H33.0354C33.6786 31.6122 34.2012 32.1348 34.2012 32.778C34.2012 33.4212 33.6822 33.9456 33.0384 33.9456Z" fill="#FFA945"/>
<path d="M18.2496 13.611H9.47339C8.40119 13.611 7.52939 14.484 7.52939 15.5562V25.3284C7.52939 26.4006 8.40119 27.2736 9.47339 27.2736H18.2496C19.3218 27.2736 20.1936 26.4006 20.1936 25.3284V15.5568C20.1936 14.484 19.3218 13.611 18.2496 13.611ZM19.2966 25.329C19.2966 25.9068 18.8268 26.3766 18.2496 26.3766H9.47339C8.89619 26.3766 8.42639 25.9068 8.42639 25.329V15.5568C8.42639 14.979 8.89619 14.5092 9.47339 14.5092H18.2496C18.8268 14.5092 19.2966 14.979 19.2966 15.5568V25.329Z" fill="#FFA945"/>
<path d="M26.7258 13.611H24.2334C23.1612 13.611 22.2888 14.484 22.2888 15.5562V25.3284C22.2888 26.4006 23.1612 27.2736 24.2334 27.2736H26.7258C27.798 27.2736 28.6698 26.4006 28.6698 25.3284V15.5568C28.6698 14.484 27.798 13.611 26.7258 13.611ZM27.7728 25.329C27.7728 25.9068 27.303 26.3766 26.7258 26.3766H24.2334C23.6556 26.3766 23.1858 25.9068 23.1858 25.329V15.5568C23.1858 14.979 23.6556 14.5092 24.2334 14.5092H26.7258C27.303 14.5092 27.7728 14.979 27.7728 15.5568V25.329Z" fill="#FFA945"/>
</svg>
