<svg width="36" height="23" viewBox="0 0 36 23" fill="none" xmlns="http://www.w3.org/2000/svg">
<path d="M15.777 5.08978C13.6074 5.08978 11.8422 6.85438 11.8422 9.02398C11.8422 11.1936 13.6068 12.9582 15.777 12.9582C17.946 12.9582 19.7112 11.1942 19.7112 9.02398C19.7112 6.85498 17.946 5.08978 15.777 5.08978ZM15.777 12.3462C13.9446 12.3462 12.4542 10.8558 12.4542 9.02398C12.4542 7.19218 13.9446 5.70178 15.777 5.70178C17.6088 5.70178 19.0992 7.19218 19.0992 9.02398C19.0992 10.8558 17.6088 12.3462 15.777 12.3462Z" fill="#FFA945"/>
<path d="M31.5534 17.0364V16.9434V1.011V0.918C31.5534 0.411 31.1424 0 30.6354 0H0.9174C0.411 0 0 0.411 0 0.918V1.011V16.9434V17.0364C0 17.5434 0.411 17.9538 0.9174 17.9538H30.6348C31.1424 17.9544 31.5534 17.5434 31.5534 17.0364ZM5.7708 16.1184C5.6508 16.0608 5.5176 16.026 5.3754 16.026H1.836V1.9296H29.718V16.026H18.0828C17.9406 16.026 17.8068 16.0614 17.6874 16.1184H5.7708Z" fill="#FFA945"/>
<path d="M33.7524 19.3818V3.35643C33.7524 2.84943 33.3414 2.43903 32.835 2.43903C32.3274 2.43903 31.917 2.85003 31.917 3.35643V18.4638H3.11699C2.60999 18.4638 2.19958 18.8754 2.19958 19.3818C2.19958 19.8882 2.61059 20.2998 3.11699 20.2998H32.835C33.3414 20.2998 33.7524 19.8882 33.7524 19.3818Z" fill="#FFA945"/>
<path d="M35.082 4.68597C34.575 4.68597 34.1646 5.09697 34.1646 5.60397V20.7114H5.3646C4.8576 20.7114 4.4472 21.1224 4.4472 21.6294C4.4472 22.1364 4.8582 22.5468 5.3646 22.5468H35.082C35.5896 22.5468 36 22.1358 36 21.6294V5.60397C36 5.09637 35.589 4.68597 35.082 4.68597Z" fill="#FFA945"/>
<path d="M28.3794 11.6358V6.41279C28.3794 4.46459 26.7936 2.87939 24.8454 2.87939H6.70799C4.75979 2.87939 3.17459 4.46459 3.17459 6.41279V11.6358C3.17459 13.584 4.75979 15.1692 6.70799 15.1692H24.8454C26.7936 15.1686 28.3794 13.584 28.3794 11.6358ZM4.09199 11.6358V6.41279C4.09199 4.97099 5.26499 3.79739 6.70739 3.79739H24.8448C26.2866 3.79739 27.4602 4.97099 27.4602 6.41279V11.6358C27.4602 13.0776 26.2866 14.2512 24.8448 14.2512H6.70799C5.26499 14.2512 4.09199 13.0776 4.09199 11.6358Z" fill="#FFA945"/>
</svg>
