<svg width="14" height="36" viewBox="0 0 14 36" fill="none" xmlns="http://www.w3.org/2000/svg">
<path d="M13.4862 28.7676L10.653 5.7714L11.211 0.9636C11.2392 0.7182 11.1618 0.4734 10.998 0.2892C10.8336 0.105 10.5984 0 10.3518 0H3.14101C2.89501 0 2.65921 0.105 2.49541 0.2892C2.33221 0.4734 2.25421 0.7182 2.28241 0.9636L2.84041 5.7714L0.006613 28.7676C-0.025187 29.0226 0.0588125 29.2782 0.234613 29.4648L6.11701 35.727C6.28021 35.901 6.50821 36 6.74641 36C6.98461 36 7.21261 35.901 7.37641 35.727L13.2588 29.4648C13.434 29.2782 13.518 29.0226 13.4862 28.7676ZM9.38161 1.7286L8.96281 5.3424H4.53121L4.11181 1.7286H9.38161ZM6.74641 33.873L1.77121 28.5774L4.52821 6.207H8.96521L11.7222 28.5774L6.74641 33.873Z" fill="#FFA945"/>
</svg>
